<?xml version="1.0" encoding="UTF-8" standalone="no"?>
<svg xmlns:x="adobe:ns:meta/" xmlns:dc="http://purl.org/dc/elements/1.1/" xmlns:cc="http://creativecommons.org/ns#" xmlns:rdf="http://www.w3.org/1999/02/22-rdf-syntax-ns#" xmlns:svg="http://www.w3.org/2000/svg" xmlns="http://www.w3.org/2000/svg" xmlns:sodipodi="http://sodipodi.sourceforge.net/DTD/sodipodi-0.dtd" xmlns:inkscape="http://www.inkscape.org/namespaces/inkscape" width="114" height="82" viewBox="0 0 114 82" id="svg16" sodipodi:docname="logomark.svg" inkscape:version="0.92.4 (5da689c313, 2019-01-14)">
  <metadata id="metadata2">
    <?xpacket begin="ÿ" id="W5M0MpCehiHzreSzNTczkc9d"?>
    <?xpacket end="w"?>
  </metadata>
  <defs id="defs6">
    <style id="style4">
      .cls-1, .cls-2, .cls-3, .cls-4 {
        stroke: #fff;
        stroke-width: 1px;
      }

      .cls-1, .cls-3, .cls-4 {
        fill-rule: evenodd;
      }

      .cls-1 {
        opacity: 0.41;
      }

      .cls-2 {
        fill: #ca5834;
      }

      .cls-3 {
        fill: #feffbc;
        opacity: 0.35;
      }

      .cls-4 {
        fill: #fffec8;
        opacity: 0.46;
      }
    </style>
  </defs>
  <path class="cls-1" d="M51.835,39.492c25.525,3.43,45.077,14.6,43.671,24.959S72.266,80.418,46.741,76.988,1.663,62.384,3.07,52.029,26.309,36.062,51.835,39.492Z" id="path8" style="stroke:none"></path>
  <circle class="cls-2" cx="76.281" cy="37.5" r="35.813" id="circle10" style="stroke:none"></circle>
  <path style="stroke:none;fill:#ea8840;fill-opacity:1;opacity:1" d="M 76.28125 1.6875 A 35.813 35.813 0 0 0 50.005859 13.230469 C 47.941937 24.037199 52.126613 36.925024 61.980469 46.724609 C 76.324469 60.989609 97.25075 63.300391 108.71875 51.900391 C 108.93542 51.68501 109.13692 51.460275 109.34375 51.238281 A 35.813 35.813 0 0 0 112.09375 37.5 A 35.813 35.813 0 0 0 76.28125 1.6875 z " id="path12"></path>
  <path class="cls-4" d="M100.839,15.72c5.567,7.133,6.154,15.946,1.312,19.684S88.87,36.389,83.3,29.256,77.149,13.311,81.991,9.573,95.272,8.587,100.839,15.72Z" id="path14" style="stroke:none;fill:#ffb359;fill-opacity:1;opacity:1"></path>
</svg>
